<mxfile host="Electron" modified="2024-05-27T07:13:55.279Z" agent="Mozilla/5.0 (X11; Linux x86_64) AppleWebKit/537.36 (KHTML, like Gecko) draw.io/24.1.0 Chrome/120.0.6099.109 Electron/28.1.0 Safari/537.36" etag="W24BjWMOrQTG4g2jF2At" version="24.1.0" type="device">
  <diagram name="Page-1" id="-cMVqA2Gkwa5aGeDibPs">
    <mxGraphModel dx="1194" dy="840" grid="1" gridSize="10" guides="1" tooltips="1" connect="1" arrows="1" fold="1" page="0" pageScale="1" pageWidth="413" pageHeight="291" math="1" shadow="0">
      <root>
        <mxCell id="0" />
        <mxCell id="1" parent="0" />
        <mxCell id="E1HJxTZ1KoTLzzK9DHDM-1" value="" style="edgeStyle=orthogonalEdgeStyle;rounded=0;orthogonalLoop=1;jettySize=auto;html=1;" parent="1" target="GCO7xrDp6TmdYOZJOnFd-126" edge="1">
          <mxGeometry relative="1" as="geometry">
            <mxPoint x="200" y="160" as="sourcePoint" />
          </mxGeometry>
        </mxCell>
        <mxCell id="E1HJxTZ1KoTLzzK9DHDM-13" value="" style="edgeStyle=orthogonalEdgeStyle;rounded=0;orthogonalLoop=1;jettySize=auto;html=1;" parent="1" source="GCO7xrDp6TmdYOZJOnFd-12" target="pcb0Rrb9AqgbB0oOaPCg-3" edge="1">
          <mxGeometry relative="1" as="geometry" />
        </mxCell>
        <mxCell id="GCO7xrDp6TmdYOZJOnFd-12" value="&lt;font style=&quot;font-size: 7px;&quot;&gt;$$\frac{1}{1+A1*s+A2*s^2}$$&lt;/font&gt;" style="whiteSpace=wrap;html=1;aspect=fixed;" parent="1" vertex="1">
          <mxGeometry x="600" y="120" width="80" height="80" as="geometry" />
        </mxCell>
        <mxCell id="E1HJxTZ1KoTLzzK9DHDM-12" value="" style="edgeStyle=orthogonalEdgeStyle;rounded=0;orthogonalLoop=1;jettySize=auto;html=1;" parent="1" source="GCO7xrDp6TmdYOZJOnFd-119" target="GCO7xrDp6TmdYOZJOnFd-12" edge="1">
          <mxGeometry relative="1" as="geometry" />
        </mxCell>
        <mxCell id="GCO7xrDp6TmdYOZJOnFd-119" value="$$\frac{t5*s}{1+t5*s}$$" style="whiteSpace=wrap;html=1;aspect=fixed;" parent="1" vertex="1">
          <mxGeometry x="480" y="120" width="80" height="80" as="geometry" />
        </mxCell>
        <mxCell id="E1HJxTZ1KoTLzzK9DHDM-10" value="" style="edgeStyle=orthogonalEdgeStyle;rounded=0;orthogonalLoop=1;jettySize=auto;html=1;" parent="1" source="GCO7xrDp6TmdYOZJOnFd-126" target="pcb0Rrb9AqgbB0oOaPCg-9" edge="1">
          <mxGeometry relative="1" as="geometry" />
        </mxCell>
        <mxCell id="GCO7xrDp6TmdYOZJOnFd-126" value="$$\frac{1}{1+t6*s}$$" style="rounded=0;whiteSpace=wrap;html=1;" parent="1" vertex="1">
          <mxGeometry x="240" y="120" width="80" height="80" as="geometry" />
        </mxCell>
        <mxCell id="E1HJxTZ1KoTLzzK9DHDM-14" value="" style="edgeStyle=orthogonalEdgeStyle;rounded=0;orthogonalLoop=1;jettySize=auto;html=1;" parent="1" source="pcb0Rrb9AqgbB0oOaPCg-3" target="E1HJxTZ1KoTLzzK9DHDM-2" edge="1">
          <mxGeometry relative="1" as="geometry" />
        </mxCell>
        <mxCell id="pcb0Rrb9AqgbB0oOaPCg-3" value="$$\frac{1+t1*s}{1+t2*s}$$" style="whiteSpace=wrap;html=1;aspect=fixed;" parent="1" vertex="1">
          <mxGeometry x="720" y="120" width="80" height="80" as="geometry" />
        </mxCell>
        <mxCell id="E1HJxTZ1KoTLzzK9DHDM-11" value="" style="edgeStyle=orthogonalEdgeStyle;rounded=0;orthogonalLoop=1;jettySize=auto;html=1;" parent="1" source="pcb0Rrb9AqgbB0oOaPCg-9" target="GCO7xrDp6TmdYOZJOnFd-119" edge="1">
          <mxGeometry relative="1" as="geometry" />
        </mxCell>
        <mxCell id="pcb0Rrb9AqgbB0oOaPCg-9" value="$$Ks$$" style="rounded=0;whiteSpace=wrap;html=1;" parent="1" vertex="1">
          <mxGeometry x="360" y="120" width="80" height="80" as="geometry" />
        </mxCell>
        <mxCell id="E1HJxTZ1KoTLzzK9DHDM-2" value="$$\frac{1+t3*s}{1+t4*s}$$" style="whiteSpace=wrap;html=1;aspect=fixed;" parent="1" vertex="1">
          <mxGeometry x="840" y="120" width="80" height="80" as="geometry" />
        </mxCell>
        <mxCell id="E1HJxTZ1KoTLzzK9DHDM-9" value="" style="edgeStyle=orthogonalEdgeStyle;rounded=0;orthogonalLoop=1;jettySize=auto;html=1;entryX=0;entryY=0.5;entryDx=0;entryDy=0;" parent="1" source="E1HJxTZ1KoTLzzK9DHDM-3" target="PNVxoJxZpI7_RD9piDGa-1" edge="1">
          <mxGeometry relative="1" as="geometry">
            <mxPoint x="1080" y="160" as="targetPoint" />
          </mxGeometry>
        </mxCell>
        <mxCell id="E1HJxTZ1KoTLzzK9DHDM-3" value="" style="whiteSpace=wrap;html=1;aspect=fixed;" parent="1" vertex="1">
          <mxGeometry x="960" y="120" width="80" height="80" as="geometry" />
        </mxCell>
        <mxCell id="E1HJxTZ1KoTLzzK9DHDM-4" value="" style="endArrow=none;html=1;" parent="1" edge="1">
          <mxGeometry width="50" height="50" relative="1" as="geometry">
            <mxPoint x="988" y="175" as="sourcePoint" />
            <mxPoint x="1012" y="145" as="targetPoint" />
          </mxGeometry>
        </mxCell>
        <mxCell id="E1HJxTZ1KoTLzzK9DHDM-5" value="" style="endArrow=none;html=1;" parent="1" edge="1">
          <mxGeometry width="50" height="50" relative="1" as="geometry">
            <mxPoint x="1012" y="145" as="sourcePoint" />
            <mxPoint x="1032" y="145" as="targetPoint" />
          </mxGeometry>
        </mxCell>
        <mxCell id="E1HJxTZ1KoTLzzK9DHDM-6" value="&lt;font style=&quot;font-size: 8px;&quot;&gt;$$VPssMaxPu$$&lt;/font&gt;" style="text;html=1;strokeColor=none;fillColor=none;align=center;verticalAlign=middle;whiteSpace=wrap;rounded=0;fontSize=15;" parent="1" vertex="1">
          <mxGeometry x="1004" y="90" width="60" height="30" as="geometry" />
        </mxCell>
        <mxCell id="E1HJxTZ1KoTLzzK9DHDM-7" value="" style="endArrow=none;html=1;" parent="1" edge="1">
          <mxGeometry width="50" height="50" relative="1" as="geometry">
            <mxPoint x="988" y="175" as="sourcePoint" />
            <mxPoint x="968" y="175" as="targetPoint" />
          </mxGeometry>
        </mxCell>
        <mxCell id="E1HJxTZ1KoTLzzK9DHDM-8" value="&lt;font style=&quot;font-size: 8px;&quot;&gt;$$VPssMinPu$$&lt;/font&gt;" style="text;html=1;strokeColor=none;fillColor=none;align=center;verticalAlign=middle;whiteSpace=wrap;rounded=0;fontSize=15;" parent="1" vertex="1">
          <mxGeometry x="940" y="200" width="60" height="30" as="geometry" />
        </mxCell>
        <mxCell id="E1HJxTZ1KoTLzzK9DHDM-16" value="" style="endArrow=classic;html=1;rounded=0;exitX=1;exitY=0.5;exitDx=0;exitDy=0;entryX=0;entryY=0.5;entryDx=0;entryDy=0;" parent="1" source="E1HJxTZ1KoTLzzK9DHDM-2" target="E1HJxTZ1KoTLzzK9DHDM-3" edge="1">
          <mxGeometry width="50" height="50" relative="1" as="geometry">
            <mxPoint x="720" y="210" as="sourcePoint" />
            <mxPoint x="770" y="160" as="targetPoint" />
          </mxGeometry>
        </mxCell>
        <mxCell id="PNVxoJxZpI7_RD9piDGa-1" value="$$VPssPu$$" style="text;strokeColor=none;align=center;fillColor=none;html=1;verticalAlign=middle;whiteSpace=wrap;rounded=0;" vertex="1" parent="1">
          <mxGeometry x="1080" y="145" width="60" height="30" as="geometry" />
        </mxCell>
        <mxCell id="PNVxoJxZpI7_RD9piDGa-2" value="$$omegaPu$$ or $$PGenPu$$" style="text;strokeColor=none;align=center;fillColor=none;html=1;verticalAlign=middle;whiteSpace=wrap;rounded=0;" vertex="1" parent="1">
          <mxGeometry x="140" y="145" width="60" height="30" as="geometry" />
        </mxCell>
      </root>
    </mxGraphModel>
  </diagram>
</mxfile>
